# xmcd
# 
# Track frame offsets:
#     150
#     24576
#     43877
#     66298
#     85070
#     108924
#     118711
#     145246
#     166370
#     189723
#     209360
#     227845
#     250369
#     272668
#     293644
#     317962
# 
# Disc length: 4429
# 
# Revision: 1
# Processed by: cddbd v1.5.2PL0 Copyright (c) Steve Scherf et al.
# Submitted via: BonkEnc v1.0.8
# 
DISCID=f0114b10
DTITLE=Tom Shaka - Deep Cut
DYEAR=2007
DGENRE=Blues
TTITLE0=Things are changing
TTITLE1=Louisiana Geli
TTITLE2=Swamp Stomp
TTITLE3=Katrina, Katrina
TTITLE4=Gone but not forgotten
TTITLE5=Piedmount Rag
TTITLE6=Mama Natures Arms
TTITLE7=Questionaire Blues
TTITLE8=Danelectro Man
TTITLE9=Big Mouth Blues
TTITLE10=Rotten from the top on down
TTITLE11=Rise up children
TTITLE12=Kiss of fire
TTITLE13=Memphis Women Blues
TTITLE14=Shakas Shack
TTITLE15=Universal Boogie
EXTD=YEAR: 2007
EXTT0=
EXTT1=
EXTT2=
EXTT3=
EXTT4=
EXTT5=
EXTT6=
EXTT7=
EXTT8=
EXTT9=
EXTT10=
EXTT11=
EXTT12=
EXTT13=
EXTT14=
EXTT15=
PLAYORDER=
